<svg xmlns="http://www.w3.org/2000/svg" aria-hidden="true" style="position:absolute;width:0;height:0;overflow:hidden"><defs><symbol id="icon-Client-1" viewBox="0 0 193 104"><path fill="currentColor" d="m70.571 13 13.015 12.399-24.157-.014v60.157h63.143V62.541l13 12.385V13h-65zM122 61.085 85.099 25.929H122v35.156zm-11.457 15.657H69.42V36.283h2.907v37.719h38.216v2.74zM77.621 96.685l-1.532-3.151h-1.265l2.221 4.171v2.43h1.147v-2.43l2.222-4.171h-1.26l-1.532 3.151zm5.649-3.151h.272l2.494 6.602h-1.197l-.534-1.546h-2.556l-.533 1.546h-1.192l2.485-6.602h.762zm-1.21 4.153h1.933l-.967-2.801-.965 2.801zm7.978-1.094-.144-.185a3.387 3.387 0 0 1-.394-.648 1.593 1.593 0 0 1-.141-.653c0-.344.071-.641.213-.889s.343-.438.603-.571a1.94 1.94 0 0 1 .911-.204c.335 0 .624.068.866.204.245.133.432.31.562.53.133.221.199.462.199.725 0 .209-.038.399-.113.571s-.18.329-.313.472a3.23 3.23 0 0 1-.462.404l-.459.334 1.307 1.543a2.661 2.661 0 0 0 .285-1.233h.943c0 .321-.032.624-.095.912a2.826 2.826 0 0 1-.482 1.089l.967 1.141h-1.265l-.384-.451a2.564 2.564 0 0 1-.677.37 3.01 3.01 0 0 1-1.025.172c-.438 0-.818-.08-1.138-.24s-.568-.381-.744-.662a1.813 1.813 0 0 1-.258-.966c0-.269.056-.505.168-.707.112-.205.265-.396.458-.571.179-.162.382-.324.611-.486zm.542.664-.137.099c-.16.13-.28.256-.358.376-.076.118-.125.227-.15.327s-.036.187-.036.263c0 .193.041.369.122.526a.96.96 0 0 0 .367.376c.163.091.361.136.594.136.251 0 .494-.056.73-.168.118-.058.23-.127.336-.208l-1.469-1.728zm.261-1.206.405-.273c.191-.127.327-.251.408-.372a.82.82 0 0 0 .122-.462c0-.157-.061-.302-.181-.435s-.292-.199-.512-.199a.67.67 0 0 0-.63.39.939.939 0 0 0 .027.807 2.7 2.7 0 0 0 .286.449l.076.096zm11.549 1.935h-1.134c-.033.287-.103.53-.209.73a1.026 1.026 0 0 1-.458.449c-.2.103-.461.154-.784.154-.266 0-.494-.053-.685-.159s-.347-.255-.472-.449a2.202 2.202 0 0 1-.272-.694 4.36 4.36 0 0 1-.086-.907v-.558c0-.351.032-.662.095-.934.067-.275.165-.506.295-.694s.292-.329.485-.426c.193-.097.42-.145.68-.145.317 0 .574.054.771.163.197.106.345.26.444.462.103.203.169.446.199.73h1.133a2.827 2.827 0 0 0-.372-1.174c-.199-.342-.48-.609-.843-.802s-.807-.29-1.333-.29c-.414 0-.787.073-1.12.218a2.358 2.358 0 0 0-.848.63c-.236.272-.417.6-.544.984a4.177 4.177 0 0 0-.186 1.288v.549c0 .475.061.904.181 1.288.124.384.302.712.535.984.233.269.512.477.839.626a2.69 2.69 0 0 0 1.102.218c.532 0 .984-.097 1.356-.29s.66-.458.866-.793a2.61 2.61 0 0 0 .363-1.156zm6.298-.97v-.363a4.18 4.18 0 0 0-.199-1.337 2.893 2.893 0 0 0-.558-1.011 2.367 2.367 0 0 0-.866-.639 2.734 2.734 0 0 0-1.115-.222c-.405 0-.775.074-1.111.222a2.418 2.418 0 0 0-.866.639 2.948 2.948 0 0 0-.562 1.011 4.162 4.162 0 0 0-.199 1.337v.363c0 .499.067.946.199 1.342.136.396.327.733.571 1.011s.534.491.866.639c.336.145.706.218 1.111.218.408 0 .78-.073 1.115-.218.335-.148.623-.361.861-.639.242-.278.428-.615.558-1.011s.195-.843.195-1.342zm-1.138-.372v.372c0 .369-.036.695-.109.979a2.151 2.151 0 0 1-.308.721 1.36 1.36 0 0 1-.499.44 1.51 1.51 0 0 1-.676.145c-.251 0-.474-.048-.671-.145a1.426 1.426 0 0 1-.508-.44c-.139-.197-.245-.437-.317-.721s-.109-.611-.109-.979v-.372c0-.369.036-.694.109-.975.073-.284.177-.521.313-.712.139-.193.307-.339.503-.435.197-.1.42-.15.671-.15s.476.05.676.15c.199.097.367.242.503.435.139.191.243.428.313.712.073.281.109.606.109.975z" style=""/></symbol><symbol id="icon-Client-2" viewBox="0 0 193 104"><path fill="currentColor" d="M93.068 11.021h-.254c-.39-.024-.78-.033-1.17-.043h-.846c-.738 0-1.489.019-2.236.057a1.192 1.192 0 0 0-.169 0 52.508 52.508 0 0 0-19.53 4.982l-.803.387v41.119l1.879-.638a71.136 71.136 0 0 1 5.224-1.549 63.787 63.787 0 0 1 15.034-1.998v5.402c-.672.005-1.325.024-1.978.057h-.155a60.084 60.084 0 0 0-11.567 1.776 58.753 58.753 0 0 0-13.779 5.37V13.206a55.207 55.207 0 0 1 14.456-5.88 55.383 55.383 0 0 1 13.624-1.757h.794c.949.024 1.875.066 2.744.132a39.28 39.28 0 0 1 6.789 1.081V12.1a41.977 41.977 0 0 0-6.577-.992l-.135-.011a16.267 16.267 0 0 0-1.345-.078zm9.359 5.436a47.99 47.99 0 0 0 3.636.132 58.466 58.466 0 0 0 14.324-1.837 59.05 59.05 0 0 0 13.775-5.374v51.797a55.391 55.391 0 0 1-14.461 5.88 55.618 55.618 0 0 1-13.624 1.752 41.628 41.628 0 0 1-10.336-1.218V15.457c.799.184 1.621.354 2.457.496 1.372.231 2.819.401 4.228.505zm26.36.401-1.879.633a82.862 82.862 0 0 1-5.224 1.563 63.604 63.604 0 0 1-15.612 2.002 52.63 52.63 0 0 1-3.443-.104l-1.499-.099v42.3l1.287.113c1.193.104 2.424.156 3.664.156a49.916 49.916 0 0 0 12.295-1.591 51.601 51.601 0 0 0 9.608-3.452l.803-.387V16.859zM66.369 83.966c-.27-.28-.596-.5-.956-.646s-.747-.214-1.135-.199a3.1 3.1 0 0 0-1.207.227c-.352.14-.671.35-.94.619a2.72 2.72 0 0 0-.606.945 3.062 3.062 0 0 0-.216 1.166v7.046c-.017.496.078.99.277 1.445.166.361.406.683.705.945.282.237.612.408.968.501a3.94 3.94 0 0 0 1.052.146c.392.004.781-.08 1.137-.245.352-.154.671-.375.94-.652.262-.274.47-.594.615-.945.151-.355.227-.738.226-1.124v-.789h-1.842v.628a1.62 1.62 0 0 1-.108.628 1.13 1.13 0 0 1-.268.397 1.131 1.131 0 0 1-.385.203 1.291 1.291 0 0 1-.385.066.94.94 0 0 1-.865-.378 1.66 1.66 0 0 1-.244-.945v-6.569a2.254 2.254 0 0 1 .225-1.053c.096-.149.231-.267.39-.343s.337-.104.512-.082a.978.978 0 0 1 .822.397c.206.271.314.604.305.945v.609h1.823v-.718a3.31 3.31 0 0 0-.226-1.233 2.901 2.901 0 0 0-.615-.992zM77.311 83.885a3.272 3.272 0 0 0-2.095-.774 3.245 3.245 0 0 0-1.099.198 2.888 2.888 0 0 0-1.686 1.563 3.28 3.28 0 0 0-.268 1.365v6.758c-.013.475.079.948.268 1.384.167.363.41.686.714.944.282.262.612.464.972.595.352.13.724.197 1.099.198a3.197 3.197 0 0 0 1.099-.198 3.07 3.07 0 0 0 .996-.595 2.89 2.89 0 0 0 .695-.944c.189-.436.281-.908.268-1.384v-6.758a3.284 3.284 0 0 0-.268-1.365 3.054 3.054 0 0 0-.695-.987zm-.86 9.11a1.218 1.218 0 0 1-.367.978 1.349 1.349 0 0 1-1.734 0 1.218 1.218 0 0 1-.367-.978v-6.758a1.203 1.203 0 0 1 .367-.978 1.349 1.349 0 0 1 1.734 0 1.218 1.218 0 0 1 .367.978v6.758zM91.682 96.013V83.22h-1.771l-2.325 6.772h-.033l-2.344-6.772h-1.752v12.793h1.828V88.23h.033l1.79 5.502h.912l1.804-5.502h.033v7.783h1.828zM102.065 84.117a2.539 2.539 0 0 0-1.034-.699 4.053 4.053 0 0 0-1.325-.198h-2.715v12.794h1.823v-4.996h.94a3.342 3.342 0 0 0 1.644-.349c.414-.23.76-.568 1.001-.978.211-.34.353-.719.418-1.114.072-.481.105-.968.099-1.454a7.296 7.296 0 0 0-.178-1.828 2.73 2.73 0 0 0-.672-1.176zm-.94 3.901a1.62 1.62 0 0 1-.169.666 1.027 1.027 0 0 1-.47.449c-.27.121-.565.176-.86.161h-.831v-4.349h.94a1.75 1.75 0 0 1 .822.16c.189.108.338.274.427.472.1.225.154.467.16.713v.85c0 .297.019.605 0 .878h-.019zM110.7 83.22h-1.494l-2.819 12.793h1.823l.536-2.749h2.485l.536 2.749h1.823l-2.889-12.793zm-1.682 8.302.897-4.637h.033l.893 4.637h-1.823zM122.478 90.927h-.033l-2.753-7.707h-1.752v12.793h1.823V88.32h.038l2.786 7.693h1.715V83.22h-1.823v7.707zM133.617 83.22l-1.466 5.086h-.037l-1.466-5.086h-1.931l2.504 7.386v5.407h1.823v-5.407l2.504-7.386h-1.931zM61.286 99.626h.879v2.465h.596v-2.465h.874v-.505h-2.349v.505zM68.671 99.12l-1.151 2.971h.634l.244-.675h1.184l.254.675h.648l-1.179-2.971h-.634zm-.094 1.795.404-1.1.404 1.1h-.808zM75.972 100.995h.686v.383c-.2.161-.449.249-.705.25a.75.75 0 0 1-.63-.284 1.241 1.241 0 0 1-.221-.774c0-.661.287-.992.855-.992a.634.634 0 0 1 .672.472l.587-.113c-.127-.581-.545-.874-1.259-.874a1.494 1.494 0 0 0-1.038.383 1.466 1.466 0 0 0-.427 1.143c-.017.407.119.804.381 1.115.145.15.322.266.516.342s.403.107.611.093c.465.013.916-.156 1.259-.472v-1.171h-1.287v.501zM83.428 99.12h-.601v2.971h2.081v-.505h-1.48v-2.465zM89.733 99.12h-.601v2.971h.601V99.12zM95.896 101.104l-1.217-1.984h-.583v2.971h.559v-1.941l1.193 1.941h.597V99.12h-.55v1.984zM101.468 100.782h1.48v-.505h-1.48v-.652h1.593v-.505h-2.194v2.971h2.255v-.505h-1.654v-.803zM114.98 100.291h-1.17V99.12h-.596v2.971h.596v-1.299h1.17v1.299h.597V99.12h-.597v1.171zM120.585 100.782h1.485v-.505h-1.485v-.652h1.597v-.505h-2.194v2.971h2.25v-.505h-1.654v-.803zM128.186 100.783c.517-.08.78-.354.78-.826.015-.126-.004-.254-.055-.371s-.133-.217-.236-.29a1.687 1.687 0 0 0-.869-.175h-1.259v2.971h.597v-1.242h.117a.802.802 0 0 1 .371.066.63.63 0 0 1 .212.217l.648.945h.714l-.362-.581a2.063 2.063 0 0 0-.658-.713zm-.601-.411h-.441v-.746h.47c.205-.017.411.007.606.071a.394.394 0 0 1 .084.476.39.39 0 0 1-.113.129 1.7 1.7 0 0 1-.606.071zM133.918 100.782h1.48v-.505h-1.48v-.652h1.597v-.505h-2.199v2.971h2.255v-.505h-1.654v-.803z" style=""/></symbol><symbol id="icon-Client-3" viewBox="0 0 193 104"><path fill="currentColor" d="M68.361 91.415c.03.001.059.007.087.017s.052.026.072.044l.41.386a3.395 3.395 0 0 1-1.153.732 4.556 4.556 0 0 1-1.635.263 4.43 4.43 0 0 1-1.538-.245 3.382 3.382 0 0 1-1.159-.692 3.083 3.083 0 0 1-.748-1.069 3.5 3.5 0 0 1-.261-1.371c-.007-.47.088-.936.282-1.376.179-.398.449-.761.795-1.069.35-.302.769-.539 1.23-.697a4.886 4.886 0 0 1 1.584-.245 4.363 4.363 0 0 1 1.471.223c.406.151.779.36 1.102.618l-.344.412a.329.329 0 0 1-.087.074.235.235 0 0 1-.138.031.332.332 0 0 1-.149-.044l-.185-.11-.256-.14a3.097 3.097 0 0 0-.343-.136 3.85 3.85 0 0 0-.466-.11 3.66 3.66 0 0 0-.61-.044 3.381 3.381 0 0 0-1.138.184 2.62 2.62 0 0 0-.892.517 2.37 2.37 0 0 0-.579.824 2.71 2.71 0 0 0-.21 1.086c-.006.375.065.749.21 1.104a2.34 2.34 0 0 0 1.42 1.327c.335.119.694.178 1.056.175.209.003.418-.009.626-.035.338-.035.662-.136.948-.294.143-.081.279-.172.405-.271a.324.324 0 0 1 .195-.07zM80.203 89.478c.006.465-.087.927-.277 1.362-.167.395-.43.756-.772 1.058s-.755.539-1.212.694a5.075 5.075 0 0 1-3.117 0 3.598 3.598 0 0 1-1.205-.697 3.089 3.089 0 0 1-.779-1.069 3.502 3.502 0 0 1 0-2.729c.175-.398.44-.763.779-1.073a3.61 3.61 0 0 1 1.205-.67 4.988 4.988 0 0 1 3.117 0c.455.158.867.395 1.21.696.337.305.601.663.774 1.056.19.439.284.903.277 1.371zm-1.077 0a2.85 2.85 0 0 0-.195-1.095 2.257 2.257 0 0 0-.549-.819 2.438 2.438 0 0 0-.866-.517 3.656 3.656 0 0 0-2.266 0c-.33.115-.626.292-.866.517a2.21 2.21 0 0 0-.554.819 3.16 3.16 0 0 0 0 2.19c.116.303.304.582.554.819.241.224.537.399.866.513a3.76 3.76 0 0 0 2.266 0 2.43 2.43 0 0 0 .866-.513c.246-.238.433-.517.549-.819.138-.353.203-.723.195-1.095zM88.282 90.626l.108.245c.041-.088.077-.166.118-.245.039-.082.084-.163.133-.241l2.62-4.069c.051-.07.097-.114.149-.127a.739.739 0 0 1 .215-.022h.774v6.618h-.918v-5.072a1.735 1.735 0 0 1 0-.228l-2.635 4.126c-.033.062-.087.114-.154.151s-.145.056-.225.055h-.149c-.08.001-.158-.018-.226-.055s-.121-.089-.154-.151l-2.712-4.152V92.771h-.887v-6.605h.774a.703.703 0 0 1 .215.022.295.295 0 0 1 .144.127l2.676 4.073c.053.075.097.154.133.236zM98.14 90.297v2.479h-1.025v-6.609h2.286c.432-.007.862.042 1.276.145.332.08.64.221.902.412.228.179.403.401.513.648.121.27.18.557.174.845a1.83 1.83 0 0 1-.744 1.506 2.636 2.636 0 0 1-.907.438 4.38 4.38 0 0 1-1.235.153l-1.241-.017zm0-.709h1.241a2.91 2.91 0 0 0 .795-.101c.212-.061.407-.158.574-.285a1.248 1.248 0 0 0 .472-.994c.012-.184-.023-.368-.103-.538s-.202-.325-.359-.451a2.235 2.235 0 0 0-1.379-.355H98.14v2.724zM111.92 92.785h-.81a.387.387 0 0 1-.225-.061.413.413 0 0 1-.133-.153l-.697-1.599h-3.501l-.723 1.599a.366.366 0 0 1-.128.149.391.391 0 0 1-.231.066h-.81l3.076-6.619h1.066l3.117 6.619zm-5.075-2.457h2.891l-1.22-2.694a4.435 4.435 0 0 1-.231-.622l-.118.346a3.114 3.114 0 0 1-.113.28l-1.21 2.689zM116.349 86.197a.443.443 0 0 1 .154.118l4.486 4.989v-5.138h.918v6.619h-.513a.513.513 0 0 1-.21-.039.56.56 0 0 1-.164-.123l-4.48-4.985c.005.076.005.152 0 .228v4.919h-.918v-6.619h.543a.478.478 0 0 1 .184.031zM129.462 90.153v2.628h-1.025v-2.628l-2.835-3.986h.918a.37.37 0 0 1 .22.057.593.593 0 0 1 .139.149l1.774 2.571c.072.11.133.21.184.307s.092.188.128.28l.133-.285c.05-.104.108-.205.174-.302l1.748-2.589a.704.704 0 0 1 .133-.14.345.345 0 0 1 .22-.066h.928l-2.84 4.003zM87.774 75.06c.446.048.897.088 1.353.123 6.917-2.644 12.769-6.971 16.823-12.44s6.132-11.839 5.974-18.312l-7.623-6.513c1.55 6.892.825 14.016-2.094 20.575S94.291 70.789 87.773 75.06z" style=""/><path fill="" d="m85.053 74.757.205.035c6.964-4.256 12.274-10.199 15.242-17.061s3.459-14.327 1.408-21.429L91.05 27.025c4.392 7.625 6.159 16.159 5.098 24.609s-4.909 16.468-11.095 23.123zM121.875 52.079c-1.845 7.112-6.325 13.526-12.775 18.29a40.823 40.823 0 0 1-6.07 3.723c5.252-1.319 10.08-3.651 14.111-6.816s7.157-7.079 9.137-11.439l-4.403-3.758z" style=""/><path fill="" d="m120.148 51.031-6.27-5.357c-.12 6.107-2.152 12.076-5.885 17.285s-9.031 9.469-15.343 12.337h.031a41.626 41.626 0 0 0 4.209-.215c5.899-2.057 11.11-5.33 15.169-9.527s6.838-9.186 8.09-14.524zM85.96 23.113l-7.479-6.399c-6.686 2.208-12.437 6.088-16.499 11.134s-6.246 11.023-6.267 17.147c.025 6.767 2.691 13.334 7.576 18.661s11.71 9.11 19.394 10.75c6.86-7.141 10.876-15.965 11.465-25.189s-2.28-18.369-8.189-26.105zM137.429 50.046c-.027-8.029-3.772-15.723-10.417-21.4s-15.65-8.877-25.047-8.9a40.444 40.444 0 0 0-12.698 2.019l45.794 39.126c1.568-3.459 2.371-7.136 2.368-10.845z" style=""/></symbol><symbol id="icon-Client-4" viewBox="0 0 193 104"><path fill="currentColor" d="M44.717 39.962h-.005c-4.43 0-8.022 3.238-8.022 7.233v.005c0 3.994 3.592 7.232 8.022 7.232h.005c4.43 0 8.022-3.238 8.022-7.232v-.005c0-3.994-3.592-7.233-8.022-7.233zM103.928 37.65c-.012-5.548-2.462-10.866-6.813-14.79s-10.248-6.133-16.402-6.146c-6.155.01-12.056 2.219-16.409 6.143S57.5 32.1 57.487 37.65v30.595s46.435-4.663 46.44-30.59v-.005zM20.429 78.287c.011 3.86 1.717 7.56 4.744 10.29s7.13 4.269 11.412 4.28c4.281-.011 8.383-1.549 11.41-4.279s4.733-6.428 4.746-10.287V57.002S20.43 60.249 20.43 78.286zm16.155 3.814c-.837 0-1.655-.224-2.35-.643s-1.238-1.015-1.558-1.712-.404-1.464-.241-2.204c.163-.74.566-1.419 1.158-1.953s1.346-.897 2.166-1.044c.821-.147 1.671-.072 2.444.217s1.434.778 1.899 1.405c.465.627.713 1.365.713 2.119.002.502-.106 1-.317 1.464s-.523.887-.916 1.242c-.393.356-.86.638-1.374.83s-1.066.292-1.623.292V82.1zM66.131 75.242v7.922h-1.632v-7.922h1.632zm3.155 3.384v1.273h-3.602v-1.273h3.602zm.381-3.384v1.279h-3.983v-1.279h3.983zm7.454 3.776v.375c0 .602-.082 1.142-.245 1.621s-.394.887-.691 1.224a2.994 2.994 0 0 1-1.066.767c-.41.178-.865.267-1.366.267-.497 0-.952-.089-1.366-.267a3.057 3.057 0 0 1-1.066-.767 3.583 3.583 0 0 1-.702-1.224 5.014 5.014 0 0 1-.245-1.621v-.375c0-.606.082-1.146.245-1.621.163-.479.394-.887.691-1.224a3.039 3.039 0 0 1 1.067-.773 3.418 3.418 0 0 1 1.366-.267c.501 0 .956.089 1.366.267.413.178.769.435 1.066.773.301.337.533.745.696 1.224.167.475.25 1.016.25 1.621zm-1.648.376v-.386c0-.421-.038-.791-.114-1.11s-.189-.588-.337-.805-.33-.381-.544-.49c-.214-.112-.459-.169-.734-.169s-.521.056-.734.169c-.21.109-.39.272-.539.49-.145.218-.256.486-.332.805s-.114.689-.114 1.11v.386c0 .417.038.787.114 1.11.076.319.189.589.337.811.149.218.33.383.544.495s.459.169.734.169c.276 0 .521-.056.734-.169s.394-.277.539-.495c.145-.221.256-.491.332-.811a4.87 4.87 0 0 0 .114-1.11zm6.948 1.697c0-.141-.022-.268-.065-.381a.728.728 0 0 0-.228-.316c-.113-.098-.27-.194-.473-.288s-.466-.192-.789-.294c-.359-.116-.7-.247-1.023-.392a4.227 4.227 0 0 1-.849-.506 2.297 2.297 0 0 1-.577-.68 1.872 1.872 0 0 1-.207-.898c0-.33.073-.629.218-.898.145-.272.348-.504.609-.696a2.88 2.88 0 0 1 .925-.451 4.191 4.191 0 0 1 1.181-.158c.584 0 1.094.105 1.529.316s.773.499 1.012.865c.243.366.364.785.364 1.257h-1.621a1.22 1.22 0 0 0-.147-.609.992.992 0 0 0-.435-.419c-.192-.102-.435-.152-.729-.152-.283 0-.519.043-.707.131a.937.937 0 0 0-.424.343.845.845 0 0 0-.141.479.7.7 0 0 0 .098.365c.069.109.171.21.305.305s.299.183.495.267c.196.083.422.165.68.245.432.131.811.277 1.137.441.33.163.606.346.827.55s.388.433.501.691c.112.258.169.55.169.876 0 .344-.067.653-.201.925s-.328.502-.582.691c-.254.188-.557.332-.909.43s-.745.147-1.181.147c-.392 0-.778-.051-1.159-.152a3.522 3.522 0 0 1-1.039-.473c-.308-.21-.555-.479-.74-.805s-.277-.713-.277-1.159h1.638c0 .247.038.455.114.626s.183.308.321.414c.141.105.308.181.501.228.196.047.41.071.642.071.283 0 .515-.04.696-.12a.863.863 0 0 0 .408-.332.864.864 0 0 0 .136-.479zm6.284-5.849v7.922h-1.627v-7.922h1.627zm2.437 0v1.279h-6.464v-1.279h6.464zm6.246 6.649v1.273h-4.217v-1.273h4.217zm-3.683-6.649v7.922h-1.632v-7.922h1.632zm3.134 3.227v1.241h-3.667v-1.241h3.667zm.544-3.227v1.279h-4.211v-1.279h4.211zm.958 0h2.955c.606 0 1.126.091 1.562.272.439.181.776.45 1.012.805s.354.793.354 1.311c0 .425-.072.789-.218 1.094a2.044 2.044 0 0 1-.604.756c-.257.2-.56.359-.908.479l-.517.272h-2.568l-.011-1.273h1.91c.287 0 .524-.051.713-.152s.33-.243.424-.425c.098-.181.147-.392.147-.631 0-.254-.047-.473-.141-.658s-.238-.327-.43-.424-.433-.147-.724-.147h-1.322v6.643h-1.632v-7.922zm4.428 7.922-1.806-3.531 1.725-.011 1.828 3.466v.076h-1.746zm8.57-2.824h-2.019v-1.273h2.019c.312 0 .566-.051.762-.152.196-.105.339-.25.43-.435s.136-.394.136-.626c0-.236-.045-.455-.136-.658s-.234-.366-.43-.49-.45-.185-.762-.185h-1.453v6.643h-1.632v-7.922h3.085c.62 0 1.152.113 1.594.337.446.221.787.528 1.023.919s.354.84.354 1.344c0 .511-.118.954-.354 1.328s-.577.662-1.023.865c-.443.203-.974.305-1.594.305zm9.412 1.551v1.273h-4.217v-1.273h4.217zm-3.683-6.649v7.922h-1.632v-7.922h1.632zm3.134 3.227v1.241h-3.667v-1.241h3.667zm.544-3.227v1.279h-4.211v-1.279h4.211zm4.608 0v7.922h-1.627v-7.922h1.627zm2.438 0v1.279h-6.464v-1.279h6.464zm6.246 6.649v1.273h-4.217v-1.273h4.217zm-3.683-6.649v7.922h-1.632v-7.922h1.632zm3.133 3.227v1.241h-3.667v-1.241h3.667zm.545-3.227v1.279h-4.211v-1.279h4.211zm.957 0h2.954c.606 0 1.126.091 1.562.272.439.181.776.45 1.012.805s.354.793.354 1.311c0 .425-.073.789-.218 1.094a2.044 2.044 0 0 1-.604.756c-.258.2-.56.359-.908.479l-.517.272h-2.568l-.011-1.273h1.91c.287 0 .524-.051.713-.152s.33-.243.424-.425c.098-.181.147-.392.147-.631 0-.254-.047-.473-.141-.658s-.238-.327-.43-.424c-.192-.098-.433-.147-.724-.147h-1.322v6.643h-1.632v-7.922zm4.429 7.922-1.806-3.531 1.725-.011 1.828 3.466v.076h-1.746zm6.834-2.073c0-.141-.022-.268-.065-.381a.728.728 0 0 0-.228-.316c-.113-.098-.27-.194-.473-.288s-.466-.192-.789-.294c-.359-.116-.7-.247-1.023-.392a4.227 4.227 0 0 1-.849-.506 2.297 2.297 0 0 1-.577-.68 1.872 1.872 0 0 1-.207-.898c0-.33.072-.629.218-.898.145-.272.348-.504.609-.696a2.88 2.88 0 0 1 .925-.451 4.196 4.196 0 0 1 1.181-.158c.584 0 1.094.105 1.529.316s.773.499 1.012.865c.243.366.364.785.364 1.257h-1.621a1.22 1.22 0 0 0-.147-.609.992.992 0 0 0-.435-.419c-.192-.102-.435-.152-.729-.152-.283 0-.519.043-.707.131a.937.937 0 0 0-.424.343.845.845 0 0 0-.141.479.7.7 0 0 0 .098.365c.069.109.171.21.305.305s.299.183.495.267c.196.083.423.165.68.245.432.131.811.277 1.137.441.33.163.606.346.827.55s.388.433.501.691c.112.258.169.55.169.876 0 .344-.067.653-.201.925s-.328.502-.582.691c-.254.188-.557.332-.909.43s-.745.147-1.181.147c-.392 0-.778-.051-1.159-.152a3.522 3.522 0 0 1-1.039-.473c-.308-.21-.555-.479-.74-.805s-.277-.713-.277-1.159h1.638c0 .247.038.455.114.626s.183.308.321.414c.141.105.308.181.501.228.196.047.41.071.642.071.283 0 .515-.04.696-.12a.863.863 0 0 0 .408-.332.864.864 0 0 0 .136-.479z" style=""/></symbol><symbol id="icon-Client-5" viewBox="0 0 193 104"><path fill="currentColor" d="M49.756 82.407c.456.508.699 1.144.686 1.797.023.426-.06.851-.244 1.244s-.464.744-.819 1.026a4.982 4.982 0 0 1-3.09.829h-5.432V75.914h5.321a4.916 4.916 0 0 1 2.948.757c.344.259.616.586.795.956s.26.772.237 1.175a2.465 2.465 0 0 1-.618 1.741 2.949 2.949 0 0 1-1.619.89 3.168 3.168 0 0 1 1.835.973zm-6.371-1.719h2.274c.517.035 1.03-.1 1.446-.378.171-.139.304-.312.388-.505s.119-.401.1-.607c.016-.206-.019-.413-.102-.605s-.213-.366-.38-.508a2.379 2.379 0 0 0-1.489-.384h-2.237v2.988zm3.943 4.367c.183-.143.326-.321.419-.522s.134-.418.118-.635c.014-.22-.028-.439-.124-.642s-.241-.383-.426-.526a2.537 2.537 0 0 0-1.545-.412h-2.385v3.132h2.416a2.593 2.593 0 0 0 1.526-.395zM60.633 87.303l-2.96-4.451h-1.112v4.451h-2.546V75.914h4.82c1.215-.076 2.416.27 3.356.968.674.618 1.08 1.433 1.146 2.297s-.214 1.721-.787 2.416a4.044 4.044 0 0 1-2.299 1.157l3.152 4.551h-2.769zM56.561 81.3h2.083c1.446 0 2.169-.575 2.169-1.725.015-.235-.025-.47-.116-.69s-.233-.421-.415-.59a2.431 2.431 0 0 0-1.638-.462h-2.108l.025 3.466zM74.551 85.011h-5.074l-.896 2.292h-2.67l4.66-11.261h2.886l4.641 11.261h-2.67l-.877-2.292zm-.68-1.725-1.854-4.807-1.854 4.807h3.708zM91.972 87.303h-2.528l-5.667-7.745v7.745h-2.521V75.914h2.521l5.667 7.789v-7.789h2.528v11.389zM106.396 84.577c-.523.86-1.319 1.559-2.287 2.008-1.1.5-2.321.747-3.553.718h-4.499V75.914h4.499a8.305 8.305 0 0 1 3.553.701c.968.439 1.765 1.131 2.287 1.986.52.926.791 1.95.791 2.988s-.271 2.061-.791 2.988zm-2.892-.273c.721-.757 1.118-1.721 1.118-2.718s-.397-1.961-1.118-2.718c-.872-.685-2.009-1.033-3.164-.968h-1.755v7.372h1.755c1.155.065 2.292-.283 3.164-.968zM76.133 12.567s32.624 11.088 31.932 27.134V66.84s-32.6-11.094-31.92-27.139l-.012-27.134zM137.129 60.486c6.161-3.817 13.288-6.182 20.728-6.877v-8.496c-8.572 2.974-15.844 8.367-20.728 15.372z" style=""/><path fill="" d="M133.428 63.046c5.043-9.142 13.786-16.196 24.43-19.712v-24.48s-46.461 15.795-45.479 38.645v38.64s2.07-.707 5.327-2.031c0-1.235 0-2.481.148-3.733.962-10.608 6.563-20.438 15.574-27.328z" style=""/><path fill="" d="M129.009 77.4a36.36 36.36 0 0 1 1.625-7.911c-5.61 5.951-9.008 13.335-9.715 21.114a33.01 33.01 0 0 0-.124 2.226 140.858 140.858 0 0 0 8.936-4.24 36.082 36.082 0 0 1-.723-11.189zM130.856 77.539a34.476 34.476 0 0 0 .575 10.131c12.694-6.838 26.957-17.403 26.407-30.171v-1.113c-9.069.914-17.554 4.483-24.152 10.159a34.911 34.911 0 0 0-2.83 10.994z" style=""/></symbol><symbol id="icon-Client-6" viewBox="0 0 193 104"><path fill="currentColor" d="M99.412 50.966c-.825-1.097-1.219-2.394-1.125-3.699v-5.364c0-1.644.373-2.894 1.119-3.748s2.028-1.28 3.844-1.277c1.707 0 2.919.364 3.636 1.091.782.928 1.162 2.063 1.075 3.208v1.26h-3.054V41.16a6.55 6.55 0 0 0-.088-1.25 1.213 1.213 0 0 0-.436-.742 1.769 1.769 0 0 0-1.107-.289 1.868 1.868 0 0 0-1.163.306 1.428 1.428 0 0 0-.506.818 6.164 6.164 0 0 0-.12 1.326v6.509a3.331 3.331 0 0 0 .392 1.828c.152.193.363.347.609.443s.519.132.788.102a1.66 1.66 0 0 0 1.081-.295c.249-.213.409-.491.455-.791a7.22 7.22 0 0 0 .095-1.304v-1.32h3.054v1.206c.086 1.193-.285 2.378-1.056 3.372-.702.797-1.897 1.195-3.655 1.195s-3.086-.425-3.838-1.309zM112.127 51.021c-.771-.835-1.157-2.052-1.157-3.661v-5.642c0-1.593.386-2.799 1.157-3.618s2.061-1.226 3.87-1.222c1.796 0 3.079.407 3.851 1.222.771.818 1.163 2.024 1.163 3.618v5.642c0 1.593-.392 2.815-1.176 3.656s-2.061 1.26-3.838 1.26-3.092-.425-3.87-1.255zm5.293-1.354a3.156 3.156 0 0 0 .367-1.67v-6.908a3.071 3.071 0 0 0-.36-1.637c-.155-.198-.371-.353-.624-.45s-.532-.13-.805-.096c-.274-.033-.554.001-.808.097s-.471.252-.628.449a3 3 0 0 0-.367 1.637v6.94a3.089 3.089 0 0 0 .367 1.67c.178.176.398.317.644.414s.514.147.785.147.538-.05.785-.147c.246-.097.466-.238.644-.414v-.033zM124.685 37.043h3.288l2.472 10.41 2.529-10.41h3.2l.322 15.025h-2.365l-.253-10.442-2.441 10.442h-1.897l-2.529-10.481-.234 10.481h-2.39l.297-15.025zM140.183 37.043h5.121c2.951 0 4.426 1.422 4.426 4.266 0 2.724-1.553 4.085-4.66 4.081h-1.745v6.678h-3.161l.019-15.025zm4.375 6.421c.312.034.63.009.93-.072s.576-.219.809-.402a2.437 2.437 0 0 0 .455-1.697 4.663 4.663 0 0 0-.152-1.364c-.045-.149-.124-.29-.233-.412s-.244-.225-.4-.303a3.272 3.272 0 0 0-1.41-.24h-1.227v4.49h1.227zM154.289 37.043h3.395l3.484 15.025h-2.947l-.689-3.465h-3.029l-.708 3.465h-2.991l3.484-15.025zm2.902 9.82-1.182-6.307-1.182 6.307h2.365zM163.982 37.043h2.213l4.236 8.571v-8.571h2.624v15.025h-2.105l-4.262-8.948v8.948h-2.713l.006-15.025zM179.202 46.339l-3.522-9.275h2.966l2.15 5.958 2.017-5.958h2.902l-3.478 9.275v5.729h-3.035v-5.729zM104.293 58.637v.786h-2.58v6.105h-1.081v-6.105h-2.593v-.786h6.254zM112.38 65.528h-.835a.373.373 0 0 1-.234-.065.364.364 0 0 1-.139-.158l-.746-1.637h-3.579l-.746 1.637a.448.448 0 0 1-.114.186.38.38 0 0 1-.234.065h-.835l3.161-6.891h1.1l3.2 6.863zm-5.236-2.559h2.985l-1.265-2.804a5.134 5.134 0 0 1-.234-.649c-.044.131-.082.256-.12.366l-.114.289-1.252 2.799zM117.83 64.852c.198.009.396.009.594 0a3.58 3.58 0 0 0 .506-.082 3.87 3.87 0 0 0 .455-.126c.139-.049.278-.109.424-.169v-1.55h-1.265a.26.26 0 0 1-.171-.055c-.021-.015-.037-.035-.048-.056s-.016-.045-.015-.069v-.529h2.453v2.641a4.717 4.717 0 0 1-1.334.562 5.657 5.657 0 0 1-.79.142 9.815 9.815 0 0 1-.923.044 4.834 4.834 0 0 1-1.593-.256 3.9 3.9 0 0 1-1.265-.72 3.339 3.339 0 0 1-.816-1.091 3.451 3.451 0 0 1-.291-1.43c-.007-.491.09-.979.284-1.441.182-.408.459-.78.816-1.091a3.85 3.85 0 0 1 1.265-.715 5.288 5.288 0 0 1 1.695-.256c.294 0 .588.02.879.06.257.036.509.095.752.175.221.072.433.163.632.273.194.108.378.228.55.36l-.303.426c-.024.039-.059.071-.103.095s-.093.036-.144.036a.412.412 0 0 1-.196-.055 3.87 3.87 0 0 1-.31-.164 2.778 2.778 0 0 0-.424-.186 4.046 4.046 0 0 0-.582-.153 4.9 4.9 0 0 0-.803-.06 3.743 3.743 0 0 0-1.22.191 2.667 2.667 0 0 0-.929.546 2.4 2.4 0 0 0-.588.857 3.224 3.224 0 0 0 0 2.297c.138.324.354.62.632.868.259.236.574.422.923.546.402.119.828.166 1.252.137zM127.91 64.742h3.452v.786h-4.508v-6.891h1.081l-.025 6.105zM134.953 65.528h-1.081v-6.891h1.081v6.891zM138.975 58.67c.064.032.12.074.165.126l4.622 5.194a1.67 1.67 0 0 1 0-.245V58.61h.942v6.919h-.544a.518.518 0 0 1-.234-.038.618.618 0 0 1-.171-.131l-4.616-5.189v5.359h-.904v-6.892h.563c.061 0 .121.011.177.033zM152.664 58.637v.758h-3.832v2.275h3.105v.731h-3.105v2.352h3.832v.758h-4.944v-6.875h4.944zM39.362 16.08l48.011 11.763v41.22L39.362 57.305V16.079zm-3.079-3.513v46.742l54.163 13.275V25.848l-54.163-13.28z" style=""/><path fill="" d="M65.312 94.281 11.143 80.995V34.258l54.169 13.28V94.28z" style=""/><path fill="" d="m37.181 15.551 47.384 11.616-20.151 17.394L17.023 32.94l20.158-17.388zm-.898-2.984L11.143 34.26l54.169 13.28 25.134-21.693-54.163-13.28zM68.36 91.652l22.086-19.063-22.086-5.418v24.481z" style=""/></symbol></defs></svg>