<svg xmlns="http://www.w3.org/2000/svg" aria-hidden="true" style="position:absolute;width:0;height:0;overflow:hidden">
    <defs>
        <symbol id="icon-E-mail" viewBox="0 0 224 64">
            <path d="M41.025 51.712V57.6H12.112v-5.888h28.913zM13.575 3v54.6H6.338V3h7.237zM37.2 26.475v5.888H12.113v-5.887H37.2zM40.65 3v5.925H12.112V3H40.65zm25.797 28.538v5.7h-18.3v-5.7h18.3zm16.759-6.451V57.6h-6.975V17.025h6.6l.375 8.062zm-1.424 10.688-3.225-.112c.025-2.775.387-5.338 1.087-7.688.7-2.375 1.738-4.438 3.112-6.187s3.087-3.1 5.137-4.05c2.051-.975 4.425-1.462 7.125-1.462 1.9 0 3.65.275 5.25.825 1.6.525 2.987 1.363 4.163 2.512s2.088 2.625 2.738 4.425c.65 1.8.975 3.975.975 6.525v27.038h-6.938v-26.7c0-2.125-.362-3.825-1.087-5.1-.7-1.275-1.7-2.2-3-2.775-1.3-.6-2.825-.9-4.575-.9-2.05 0-3.763.363-5.137 1.087s-2.475 1.725-3.3 3-1.425 2.738-1.8 4.387c-.35 1.625-.525 3.35-.525 5.175zm26.287-3.825-4.65 1.425a20.457 20.457 0 0 1 1.087-6.413 17.41 17.41 0 0 1 3.113-5.475c1.375-1.6 3.062-2.862 5.062-3.788 2-.95 4.287-1.425 6.863-1.425 2.175 0 4.1.288 5.775.862 1.7.575 3.125 1.462 4.275 2.663 1.175 1.175 2.062 2.688 2.662 4.538s.9 4.05.9 6.6V57.6h-6.975V30.862c0-2.275-.363-4.037-1.088-5.288-.7-1.275-1.7-2.163-3-2.662-1.275-.525-2.8-.788-4.575-.788-1.525 0-2.875.262-4.05.788s-2.163 1.25-2.963 2.175c-.8.9-1.412 1.938-1.837 3.113-.4 1.175-.6 2.425-.6 3.75zm62.584 18.713V29.775c0-1.6-.325-2.987-.975-4.163-.625-1.2-1.575-2.125-2.85-2.775s-2.851-.975-4.725-.975c-1.75 0-3.288.3-4.613.9-1.3.6-2.325 1.387-3.075 2.363-.725.975-1.087 2.025-1.087 3.15h-6.938c0-1.45.375-2.887 1.125-4.313s1.825-2.712 3.225-3.863c1.425-1.175 3.125-2.1 5.1-2.775 2-.7 4.225-1.05 6.675-1.05 2.95 0 5.55.5 7.8 1.5 2.275 1 4.05 2.512 5.325 4.538 1.3 2 1.95 4.512 1.95 7.537v18.9c0 1.35.113 2.787.337 4.313.25 1.525.613 2.837 1.088 3.938v.6h-7.238c-.35-.8-.625-1.862-.825-3.188-.2-1.35-.3-2.6-.3-3.75zm1.2-17.663.075 4.875h-7.012c-1.975 0-3.738.163-5.287.487-1.55.3-2.851.763-3.9 1.388s-1.85 1.413-2.4 2.362c-.55.925-.825 2.013-.825 3.262 0 1.275.287 2.438.862 3.488s1.437 1.888 2.588 2.512c1.175.6 2.613.9 4.313.9 2.125 0 4-.45 5.625-1.35s2.912-2 3.862-3.3c.975-1.3 1.5-2.563 1.575-3.788l2.963 3.337c-.175 1.05-.65 2.213-1.425 3.488s-1.813 2.5-3.112 3.675c-1.275 1.15-2.8 2.112-4.575 2.888-1.75.75-3.725 1.125-5.924 1.125-2.75 0-5.163-.538-7.238-1.613-2.05-1.075-3.65-2.512-4.8-4.312-1.125-1.825-1.688-3.862-1.688-6.112 0-2.175.425-4.087 1.275-5.738.851-1.675 2.076-3.062 3.675-4.163 1.6-1.125 3.524-1.975 5.775-2.55s4.763-.862 7.537-.862h8.063zm27.26-15.975V57.6h-6.975V17.025h6.975zm-7.5-10.762c0-1.125.338-2.075 1.012-2.85.7-.775 1.725-1.163 3.075-1.163 1.325 0 2.337.388 3.037 1.163.725.775 1.087 1.725 1.087 2.85 0 1.075-.362 2-1.087 2.775-.7.75-1.713 1.125-3.037 1.125-1.35 0-2.375-.375-3.075-1.125-.675-.775-1.012-1.7-1.012-2.775zM220.86 0v57.6h-6.975V0h6.975z"/>
        </symbol>
        <symbol id="icon-email-black" viewBox="0 0 48 64">
            <path d="M40 16H8c-2.2 0-3.98 1.8-3.98 4L4 44c0 2.2 1.8 4 4 4h32c2.2 0 4-1.8 4-4V20c0-2.2-1.8-4-4-4zm-.8 8.5-14.14 8.84c-.64.4-1.48.4-2.12 0L8.8 24.5c-.5-.32-.8-.86-.8-1.44 0-1.34 1.46-2.14 2.6-1.44L24 30l13.4-8.38c1.14-.7 2.6.1 2.6 1.44 0 .58-.3 1.12-.8 1.44z"/>
        </symbol>
        <symbol id="icon-line" viewBox="0 0 7 64">
            <path stroke-linecap="round" stroke-width="4.444" d="M2.222 2.222v59.556"/>
        </symbol>
        <symbol id="icon-person-black" viewBox="0 0 64 64">
            <path d="M32 32c5.893 0 10.667-4.773 10.667-10.667S37.894 10.666 32 10.666c-5.893 0-10.667 4.773-10.667 10.667S26.106 32 32 32zm0 5.333c-7.12 0-21.333 3.573-21.333 10.667v2.667c0 1.467 1.2 2.667 2.667 2.667h37.333c1.467 0 2.667-1.2 2.667-2.667V48c0-7.093-14.213-10.667-21.333-10.667z"/>
        </symbol>
        <symbol id="icon-phone-black" viewBox="0 0 48 64">
            <path d="m39.27 36.974-4.902-.56a3.842 3.842 0 0 0-3.165 1.1l-3.551 3.551a29.039 29.039 0 0 1-12.717-12.717l3.57-3.57a3.842 3.842 0 0 0 1.1-3.165l-.56-4.863a3.863 3.863 0 0 0-3.84-3.416h-3.339c-2.181 0-3.995 1.814-3.86 3.995C9.029 33.81 22.209 46.971 38.671 47.994c2.181.135 3.995-1.679 3.995-3.859v-3.339c.019-1.949-1.447-3.589-3.396-3.821z"/>
        </symbol>
        <symbol id="icon-plane" viewBox="0 0 64 64">
            <path d="m64 5.333-64 30 20.453 6.313L52 17 28.005 43.977l.019.006-.024-.006v14.69l11.47-11.151L54 52.001 64 5.334z"/>
        </symbol>
        <symbol id="icon-Text-input" viewBox="0 0 304 64">
            <path d="M22.094 2.5V48h-5.938V2.5h5.938zm14.625 0v4.938H1.563V2.5h35.156zM56.06 48.625c-2.355 0-4.49-.396-6.407-1.188a14.532 14.532 0 0 1-4.906-3.406c-1.354-1.458-2.396-3.188-3.125-5.188s-1.094-4.187-1.094-6.563v-1.313c0-2.75.406-5.198 1.219-7.344.813-2.167 1.917-4 3.313-5.5s2.979-2.635 4.75-3.406a13.64 13.64 0 0 1 5.5-1.156c2.417 0 4.5.417 6.25 1.25 1.771.833 3.219 2 4.344 3.5 1.125 1.479 1.958 3.229 2.5 5.25.542 2 .812 4.187.812 6.563v2.594h-25.25v-4.719h19.469v-.438a14.432 14.432 0 0 0-.938-4.375c-.521-1.417-1.354-2.583-2.5-3.5s-2.708-1.375-4.687-1.375c-1.313 0-2.521.281-3.625.844-1.104.542-2.052 1.354-2.844 2.438s-1.406 2.406-1.844 3.969c-.438 1.563-.656 3.365-.656 5.406v1.313c0 1.604.219 3.115.656 4.531.458 1.396 1.115 2.625 1.969 3.688a9.431 9.431 0 0 0 3.156 2.5c1.25.604 2.667.906 4.25.906 2.042 0 3.771-.417 5.188-1.25s2.656-1.948 3.719-3.344l3.5 2.781c-.729 1.104-1.656 2.156-2.781 3.156s-2.51 1.813-4.156 2.438c-1.625.625-3.552.938-5.781.938zm26.373-34.437 7.406 12.313 7.5-12.313h6.781L93.058 30.875 104.464 48h-6.688l-7.812-12.688L82.152 48h-6.719l11.375-17.125-11.031-16.687h6.657zm44.56 0v4.438h-18.281v-4.438h18.281zm-12.094-8.219h5.781v33.656c0 1.146.177 2.01.531 2.594s.813.969 1.375 1.156a5.687 5.687 0 0 0 1.813.281c.479 0 .979-.042 1.5-.125a37.75 37.75 0 0 0 1.219-.25l.031 4.719c-.458.146-1.062.281-1.813.406-.729.146-1.614.219-2.656.219-1.417 0-2.719-.281-3.906-.844s-2.135-1.5-2.844-2.813c-.687-1.333-1.031-3.125-1.031-5.375V5.968zm46.151 8.219v33.813h-5.813V14.188h5.813zm-6.25-8.969c0-.938.281-1.729.844-2.375.583-.646 1.437-.969 2.563-.969 1.104 0 1.948.323 2.531.969.604.646.906 1.438.906 2.375a3.27 3.27 0 0 1-.906 2.313c-.583.625-1.427.938-2.531.938-1.125 0-1.979-.313-2.563-.938-.563-.646-.844-1.417-.844-2.313zm23.873 16.187V48h-5.781V14.187h5.469l.313 7.219zm-1.375 8.407-2.406-.094c.021-2.313.365-4.448 1.031-6.406.667-1.979 1.604-3.698 2.812-5.156s2.646-2.583 4.313-3.375c1.687-.813 3.552-1.219 5.594-1.219 1.667 0 3.167.229 4.5.688 1.333.438 2.469 1.146 3.406 2.125.958.979 1.687 2.25 2.187 3.813.5 1.542.75 3.427.75 5.656v22.156h-5.812V25.782c0-1.771-.26-3.187-.781-4.25-.521-1.083-1.281-1.865-2.281-2.344-1-.5-2.229-.75-3.687-.75-1.438 0-2.75.302-3.938.906a9.416 9.416 0 0 0-3.031 2.5c-.833 1.063-1.49 2.281-1.969 3.656-.459 1.354-.687 2.792-.687 4.313zm39.309-9.125v40.313h-5.812V14.188h5.313l.5 6.5zm22.782 10.125v.656c0 2.458-.292 4.74-.875 6.844-.583 2.083-1.437 3.896-2.562 5.438-1.105 1.542-2.469 2.74-4.094 3.594s-3.49 1.281-5.594 1.281c-2.146 0-4.042-.354-5.688-1.063s-3.042-1.74-4.187-3.094c-1.146-1.354-2.062-2.979-2.75-4.875-.667-1.896-1.125-4.031-1.375-6.406v-3.5c.25-2.5.718-4.74 1.406-6.719s1.594-3.667 2.719-5.063a11.159 11.159 0 0 1 4.156-3.219c1.625-.75 3.5-1.125 5.625-1.125s4.01.417 5.656 1.25c1.646.813 3.031 1.979 4.156 3.5s1.969 3.344 2.531 5.469c.583 2.104.875 4.448.875 7.031zm-5.813.656v-.656c0-1.687-.177-3.271-.531-4.75-.354-1.5-.906-2.813-1.656-3.938a7.89 7.89 0 0 0-2.813-2.688c-1.146-.667-2.51-1-4.093-1-1.459 0-2.729.25-3.813.75a8.236 8.236 0 0 0-2.718 2.031 10.776 10.776 0 0 0-1.844 2.875 16.474 16.474 0 0 0-1.031 3.313V35.5a18.09 18.09 0 0 0 1.75 4.125 9.071 9.071 0 0 0 3 3.094c1.25.771 2.823 1.156 4.719 1.156 1.563 0 2.906-.323 4.031-.969a8.163 8.163 0 0 0 2.813-2.719c.75-1.146 1.302-2.458 1.656-3.938.354-1.5.531-3.094.531-4.781zm36.435 8.719v-26h5.813v33.813h-5.532l-.281-7.813zm1.094-7.125 2.406-.063c0 2.25-.24 4.333-.719 6.25-.458 1.896-1.209 3.542-2.25 4.938s-2.406 2.49-4.094 3.281c-1.687.771-3.739 1.156-6.156 1.156-1.645 0-3.156-.24-4.531-.719-1.354-.479-2.521-1.219-3.5-2.219s-1.74-2.302-2.281-3.906c-.521-1.604-.781-3.531-.781-5.781V14.187h5.781v21.875c0 1.521.166 2.781.5 3.781.354.979.823 1.76 1.406 2.344a5.213 5.213 0 0 0 2 1.187c.75.229 1.521.344 2.313.344 2.458 0 4.406-.469 5.844-1.406a8.01 8.01 0 0 0 3.093-3.844c.646-1.625.969-3.427.969-5.406zm30.248-18.875v4.438h-18.281v-4.438h18.281zm-12.094-8.219h5.781v33.656c0 1.146.177 2.01.531 2.594s.813.969 1.375 1.156a5.687 5.687 0 0 0 1.813.281c.479 0 .979-.042 1.5-.125a37.75 37.75 0 0 0 1.219-.25l.031 4.719c-.458.146-1.062.281-1.813.406-.729.146-1.614.219-2.656.219-1.417 0-2.719-.281-3.906-.844s-2.135-1.5-2.844-2.813c-.687-1.333-1.031-3.125-1.031-5.375V5.968z"/>
        </symbol>
        <symbol id="icon-Checkbox" viewBox="0 0 64 64"><path fill="#f4f4fd" d="M45.843 17.957c.658-.578 1.532-.897 2.44-.891s1.777.338 2.425.925c.648.587 1.024 1.383 1.048 2.221s-.306 1.651-.919 2.268l-18.62 21.495c-.32.318-.707.574-1.136.751s-.893.273-1.364.281-.938-.072-1.374-.234a3.556 3.556 0 0 1-1.166-.712L14.829 32.663c-.344-.296-.62-.652-.811-1.049s-.294-.824-.302-1.258c-.008-.434.078-.865.254-1.267s.438-.768.77-1.075c.332-.307.728-.549 1.164-.711a3.786 3.786 0 0 1 2.736.044c.43.176.816.431 1.136.749l9.772 9.016 16.207-19.061a1.19 1.19 0 0 1 .093-.095h-.005z" style="fill:var(--color1, #f4f4fd)"/><path fill="none" stroke="#2e2f42" stroke-width="5" d="M8 2.5h48A5.5 5.5 0 0 1 61.5 8v48a5.5 5.5 0 0 1-5.5 5.5H8A5.5 5.5 0 0 1 2.5 56V8A5.5 5.5 0 0 1 8 2.5z" style="stroke:var(--color2, #2e2f42)"/></symbol>
    </defs>
</svg>